<mxfile host="Electron" modified="2024-01-09T21:12:51.083Z" agent="Mozilla/5.0 (Windows NT 10.0; Win64; x64) AppleWebKit/537.36 (KHTML, like Gecko) draw.io/22.1.16 Chrome/120.0.6099.109 Electron/28.1.0 Safari/537.36" etag="X6qHbz63anVnQXo90qkM" version="22.1.16" type="device">
  <diagram name="Page-1" id="5S8INzSQ7SyHETHmv29p">
    <mxGraphModel dx="1036" dy="614" grid="1" gridSize="10" guides="1" tooltips="1" connect="1" arrows="1" fold="1" page="1" pageScale="1" pageWidth="850" pageHeight="1100" math="0" shadow="0">
      <root>
        <mxCell id="0" />
        <mxCell id="1" parent="0" />
        <mxCell id="FffHcihw9svaA8GWwG3r-17" value="Web Server" style="rounded=1;whiteSpace=wrap;html=1;align=center;verticalAlign=top;strokeWidth=3;strokeColor=#9AC7BF;" vertex="1" parent="1">
          <mxGeometry x="440" y="260" width="330" height="180" as="geometry" />
        </mxCell>
        <mxCell id="FffHcihw9svaA8GWwG3r-2" value="Back-end&lt;br&gt;API&lt;br&gt;(Business Layer&lt;br&gt;Data Layer)" style="rounded=0;whiteSpace=wrap;html=1;" vertex="1" parent="1">
          <mxGeometry x="487" y="302.5" width="120" height="85" as="geometry" />
        </mxCell>
        <mxCell id="FffHcihw9svaA8GWwG3r-3" value="DB" style="shape=cylinder3;whiteSpace=wrap;html=1;boundedLbl=1;backgroundOutline=1;size=15;" vertex="1" parent="1">
          <mxGeometry x="678" y="305" width="60" height="80" as="geometry" />
        </mxCell>
        <mxCell id="FffHcihw9svaA8GWwG3r-7" value="" style="endArrow=classic;startArrow=classic;html=1;rounded=0;" edge="1" parent="1" source="FffHcihw9svaA8GWwG3r-2" target="FffHcihw9svaA8GWwG3r-3">
          <mxGeometry width="50" height="50" relative="1" as="geometry">
            <mxPoint x="458" y="540" as="sourcePoint" />
            <mxPoint x="508" y="490" as="targetPoint" />
          </mxGeometry>
        </mxCell>
        <mxCell id="FffHcihw9svaA8GWwG3r-13" value="" style="group;rounded=1;align=center;arcSize=26;" vertex="1" connectable="0" parent="1">
          <mxGeometry x="80" y="160" width="260" height="110" as="geometry" />
        </mxCell>
        <mxCell id="FffHcihw9svaA8GWwG3r-14" value="Client Machine" style="rounded=1;whiteSpace=wrap;html=1;align=center;verticalAlign=top;strokeWidth=3;strokeColor=#9AC7BF;" vertex="1" parent="FffHcihw9svaA8GWwG3r-13">
          <mxGeometry width="260" height="110" as="geometry" />
        </mxCell>
        <mxCell id="FffHcihw9svaA8GWwG3r-15" value="Presentation Layer (Javascript)" style="rounded=0;whiteSpace=wrap;html=1;" vertex="1" parent="FffHcihw9svaA8GWwG3r-13">
          <mxGeometry x="115" y="25" width="120" height="60" as="geometry" />
        </mxCell>
        <mxCell id="FffHcihw9svaA8GWwG3r-20" style="rounded=0;orthogonalLoop=1;jettySize=auto;html=1;startArrow=classic;startFill=1;" edge="1" parent="FffHcihw9svaA8GWwG3r-13" source="FffHcihw9svaA8GWwG3r-19" target="FffHcihw9svaA8GWwG3r-15">
          <mxGeometry relative="1" as="geometry" />
        </mxCell>
        <mxCell id="FffHcihw9svaA8GWwG3r-19" value="Browser" style="image;aspect=fixed;perimeter=ellipsePerimeter;html=1;align=center;shadow=0;dashed=0;fontColor=#4277BB;labelBackgroundColor=default;fontSize=12;spacingTop=3;image=img/lib/ibm/users/browser.svg;verticalAlign=top;" vertex="1" parent="FffHcihw9svaA8GWwG3r-13">
          <mxGeometry x="10" y="25" width="60" height="60" as="geometry" />
        </mxCell>
        <mxCell id="FffHcihw9svaA8GWwG3r-16" value="" style="endArrow=classic;startArrow=classic;html=1;rounded=0;" edge="1" parent="1" source="FffHcihw9svaA8GWwG3r-15" target="FffHcihw9svaA8GWwG3r-2">
          <mxGeometry width="50" height="50" relative="1" as="geometry">
            <mxPoint x="325" y="355" as="sourcePoint" />
            <mxPoint x="458" y="355" as="targetPoint" />
          </mxGeometry>
        </mxCell>
        <mxCell id="FffHcihw9svaA8GWwG3r-21" value="" style="group;rounded=1;" vertex="1" connectable="0" parent="1">
          <mxGeometry x="80" y="290" width="260" height="110" as="geometry" />
        </mxCell>
        <mxCell id="FffHcihw9svaA8GWwG3r-22" value="Client Machine" style="rounded=1;whiteSpace=wrap;html=1;align=center;verticalAlign=top;strokeWidth=3;strokeColor=#9AC7BF;" vertex="1" parent="FffHcihw9svaA8GWwG3r-21">
          <mxGeometry width="260" height="110" as="geometry" />
        </mxCell>
        <mxCell id="FffHcihw9svaA8GWwG3r-23" value="Presentation Layer (Javascript)" style="rounded=0;whiteSpace=wrap;html=1;" vertex="1" parent="FffHcihw9svaA8GWwG3r-21">
          <mxGeometry x="115" y="25" width="120" height="60" as="geometry" />
        </mxCell>
        <mxCell id="FffHcihw9svaA8GWwG3r-24" style="rounded=0;orthogonalLoop=1;jettySize=auto;html=1;startArrow=classic;startFill=1;" edge="1" parent="FffHcihw9svaA8GWwG3r-21" source="FffHcihw9svaA8GWwG3r-25" target="FffHcihw9svaA8GWwG3r-23">
          <mxGeometry relative="1" as="geometry" />
        </mxCell>
        <mxCell id="FffHcihw9svaA8GWwG3r-25" value="Browser" style="image;aspect=fixed;perimeter=ellipsePerimeter;html=1;align=center;shadow=0;dashed=0;fontColor=#4277BB;labelBackgroundColor=default;fontSize=12;spacingTop=3;image=img/lib/ibm/users/browser.svg;verticalAlign=top;" vertex="1" parent="FffHcihw9svaA8GWwG3r-21">
          <mxGeometry x="10" y="25" width="60" height="60" as="geometry" />
        </mxCell>
        <mxCell id="FffHcihw9svaA8GWwG3r-26" value="" style="group;rounded=0;strokeWidth=1;" vertex="1" connectable="0" parent="1">
          <mxGeometry x="80" y="420" width="260" height="110" as="geometry" />
        </mxCell>
        <mxCell id="FffHcihw9svaA8GWwG3r-27" value="Client Machine" style="rounded=1;whiteSpace=wrap;html=1;align=center;verticalAlign=top;strokeWidth=3;strokeColor=#9AC7BF;" vertex="1" parent="FffHcihw9svaA8GWwG3r-26">
          <mxGeometry width="260" height="110" as="geometry" />
        </mxCell>
        <mxCell id="FffHcihw9svaA8GWwG3r-28" value="Presentation Layer (Javascript)" style="rounded=0;whiteSpace=wrap;html=1;" vertex="1" parent="FffHcihw9svaA8GWwG3r-26">
          <mxGeometry x="115" y="25" width="120" height="60" as="geometry" />
        </mxCell>
        <mxCell id="FffHcihw9svaA8GWwG3r-29" style="rounded=0;orthogonalLoop=1;jettySize=auto;html=1;startArrow=classic;startFill=1;" edge="1" parent="FffHcihw9svaA8GWwG3r-26" source="FffHcihw9svaA8GWwG3r-30" target="FffHcihw9svaA8GWwG3r-28">
          <mxGeometry relative="1" as="geometry" />
        </mxCell>
        <mxCell id="FffHcihw9svaA8GWwG3r-30" value="Browser" style="image;aspect=fixed;perimeter=ellipsePerimeter;html=1;align=center;shadow=0;dashed=0;fontColor=#4277BB;labelBackgroundColor=default;fontSize=12;spacingTop=3;image=img/lib/ibm/users/browser.svg;verticalAlign=top;" vertex="1" parent="FffHcihw9svaA8GWwG3r-26">
          <mxGeometry x="10" y="25" width="60" height="60" as="geometry" />
        </mxCell>
        <mxCell id="FffHcihw9svaA8GWwG3r-12" style="rounded=0;orthogonalLoop=1;jettySize=auto;html=1;startArrow=classic;startFill=1;" edge="1" parent="1" source="FffHcihw9svaA8GWwG3r-28" target="FffHcihw9svaA8GWwG3r-2">
          <mxGeometry relative="1" as="geometry">
            <mxPoint x="315" y="448.28767123287673" as="sourcePoint" />
          </mxGeometry>
        </mxCell>
        <mxCell id="FffHcihw9svaA8GWwG3r-6" value="" style="endArrow=classic;startArrow=classic;html=1;rounded=0;" edge="1" parent="1" source="FffHcihw9svaA8GWwG3r-23" target="FffHcihw9svaA8GWwG3r-2">
          <mxGeometry width="50" height="50" relative="1" as="geometry">
            <mxPoint x="315" y="345" as="sourcePoint" />
            <mxPoint x="480" y="490" as="targetPoint" />
          </mxGeometry>
        </mxCell>
        <mxCell id="FffHcihw9svaA8GWwG3r-32" value="Client Machine" style="rounded=1;whiteSpace=wrap;html=1;align=center;verticalAlign=top;strokeWidth=3;strokeColor=#9AC7BF;" vertex="1" parent="1">
          <mxGeometry x="80" y="690" width="550" height="170" as="geometry" />
        </mxCell>
        <mxCell id="FffHcihw9svaA8GWwG3r-38" style="rounded=0;orthogonalLoop=1;jettySize=auto;html=1;startArrow=classic;startFill=1;" edge="1" parent="1" source="FffHcihw9svaA8GWwG3r-33" target="FffHcihw9svaA8GWwG3r-36">
          <mxGeometry relative="1" as="geometry" />
        </mxCell>
        <mxCell id="FffHcihw9svaA8GWwG3r-33" value="Presentation Layer (Javascript)" style="rounded=0;whiteSpace=wrap;html=1;" vertex="1" parent="1">
          <mxGeometry x="210" y="740.5699999999999" width="120" height="70.68" as="geometry" />
        </mxCell>
        <mxCell id="FffHcihw9svaA8GWwG3r-34" style="rounded=0;orthogonalLoop=1;jettySize=auto;html=1;startArrow=classic;startFill=1;" edge="1" parent="1" source="FffHcihw9svaA8GWwG3r-35" target="FffHcihw9svaA8GWwG3r-33">
          <mxGeometry relative="1" as="geometry" />
        </mxCell>
        <mxCell id="FffHcihw9svaA8GWwG3r-35" value="Browser" style="image;aspect=fixed;perimeter=ellipsePerimeter;html=1;align=center;shadow=0;dashed=0;fontColor=#4277BB;labelBackgroundColor=default;fontSize=12;spacingTop=3;image=img/lib/ibm/users/browser.svg;verticalAlign=top;" vertex="1" parent="1">
          <mxGeometry x="101.15384615384616" y="745.9090909090909" width="60" height="60" as="geometry" />
        </mxCell>
        <mxCell id="FffHcihw9svaA8GWwG3r-39" style="rounded=0;orthogonalLoop=1;jettySize=auto;html=1;startArrow=classic;startFill=1;" edge="1" parent="1" source="FffHcihw9svaA8GWwG3r-36" target="FffHcihw9svaA8GWwG3r-37">
          <mxGeometry relative="1" as="geometry" />
        </mxCell>
        <mxCell id="FffHcihw9svaA8GWwG3r-36" value="Back-end&lt;br&gt;API&lt;br&gt;(Business Layer&lt;br&gt;Data Layer)" style="rounded=0;whiteSpace=wrap;html=1;" vertex="1" parent="1">
          <mxGeometry x="380" y="733.41" width="120" height="85" as="geometry" />
        </mxCell>
        <mxCell id="FffHcihw9svaA8GWwG3r-37" value="DB" style="shape=cylinder3;whiteSpace=wrap;html=1;boundedLbl=1;backgroundOutline=1;size=15;" vertex="1" parent="1">
          <mxGeometry x="540" y="735.91" width="60" height="80" as="geometry" />
        </mxCell>
        <mxCell id="FffHcihw9svaA8GWwG3r-40" value="&lt;b&gt;&lt;font style=&quot;font-size: 28px;&quot;&gt;Enterprise&lt;/font&gt;&lt;/b&gt;" style="text;html=1;strokeColor=none;fillColor=none;align=left;verticalAlign=middle;whiteSpace=wrap;rounded=0;" vertex="1" parent="1">
          <mxGeometry x="80" y="110" width="200" height="30" as="geometry" />
        </mxCell>
        <mxCell id="FffHcihw9svaA8GWwG3r-41" value="&lt;b&gt;&lt;font style=&quot;font-size: 28px;&quot;&gt;Standalone or Local Install&lt;/font&gt;&lt;/b&gt;" style="text;html=1;strokeColor=none;fillColor=none;align=left;verticalAlign=middle;whiteSpace=wrap;rounded=0;" vertex="1" parent="1">
          <mxGeometry x="80" y="640" width="420" height="30" as="geometry" />
        </mxCell>
      </root>
    </mxGraphModel>
  </diagram>
</mxfile>
